<svg xmlns="http://www.w3.org/2000/svg" version="1.1" xmlns:xlink="http://www.w3.org/1999/xlink" xmlns:svgjs="http://svgjs.dev/svgjs" width="1440" height="560" preserveAspectRatio="none" viewBox="0 0 1440 560"><g mask="url(&quot;#SvgjsMask1046&quot;)" fill="none"><rect width="1440" height="560" x="0" y="0" fill="url(&quot;#SvgjsLinearGradient1047&quot;)"></rect><path d="M-99.72 362.81L-99.72 362.81" stroke="#132e65" stroke-width="1.5"></path><path d="M-99.72 362.81L43.94 389.82" stroke="#132e65" stroke-width="1.5"></path><path d="M-99.72 362.81L-99.06 555.34" stroke="#132e65" stroke-width="1.5"></path><path d="M-99.72 362.81L61.65 531.01" stroke="#132e65" stroke-width="1.5"></path><path d="M-99.06 555.34L-99.06 555.34" stroke="#132e65" stroke-width="1.5"></path><path d="M-99.06 555.34L-80.94 674.6" stroke="#132e65" stroke-width="1.5"></path><path d="M-99.06 555.34L61.65 531.01" stroke="#132e65" stroke-width="1.5"></path><path d="M-99.06 555.34L42.14 670.2" stroke="#132e65" stroke-width="1.5"></path><path d="M-80.94 674.6L-80.94 674.6" stroke="#132e65" stroke-width="1.5"></path><path d="M-80.94 674.6L42.14 670.2" stroke="#132e65" stroke-width="1.5"></path><path d="M-80.94 674.6L61.65 531.01" stroke="#132e65" stroke-width="1.5"></path><path d="M-80.94 674.6L43.94 389.82" stroke="#132e65" stroke-width="1.5"></path><path d="M43.94 389.82L43.94 389.82" stroke="#132e65" stroke-width="1.5"></path><path d="M43.94 389.82L61.65 531.01" stroke="#132e65" stroke-width="1.5"></path><path d="M43.94 389.82L203.53 375.66" stroke="#132e65" stroke-width="1.5"></path><path d="M43.94 389.82L-99.06 555.34" stroke="#132e65" stroke-width="1.5"></path><path d="M43.94 389.82L225.72 522.92" stroke="#132e65" stroke-width="1.5"></path><path d="M43.94 389.82L42.14 670.2" stroke="#132e65" stroke-width="1.5"></path><path d="M61.65 531.01L61.65 531.01" stroke="#132e65" stroke-width="1.5"></path><path d="M61.65 531.01L42.14 670.2" stroke="#132e65" stroke-width="1.5"></path><path d="M61.65 531.01L225.72 522.92" stroke="#132e65" stroke-width="1.5"></path><path d="M42.14 670.2L42.14 670.2" stroke="#132e65" stroke-width="1.5"></path><path d="M42.14 670.2L255.45 677.86" stroke="#132e65" stroke-width="1.5"></path><path d="M203.53 375.66L203.53 375.66" stroke="#132e65" stroke-width="1.5"></path><path d="M203.53 375.66L341.97 373.77" stroke="#132e65" stroke-width="1.5"></path><path d="M203.53 375.66L225.72 522.92" stroke="#132e65" stroke-width="1.5"></path><path d="M203.53 375.66L349.85 514.55" stroke="#132e65" stroke-width="1.5"></path><path d="M203.53 375.66L61.65 531.01" stroke="#132e65" stroke-width="1.5"></path><path d="M203.53 375.66L338.68 637.73" stroke="#132e65" stroke-width="1.5"></path><path d="M225.72 522.92L225.72 522.92" stroke="#132e65" stroke-width="1.5"></path><path d="M225.72 522.92L349.85 514.55" stroke="#132e65" stroke-width="1.5"></path><path d="M225.72 522.92L255.45 677.86" stroke="#132e65" stroke-width="1.5"></path><path d="M225.72 522.92L338.68 637.73" stroke="#132e65" stroke-width="1.5"></path><path d="M255.45 677.86L255.45 677.86" stroke="#132e65" stroke-width="1.5"></path><path d="M255.45 677.86L338.68 637.73" stroke="#132e65" stroke-width="1.5"></path><path d="M255.45 677.86L349.85 514.55" stroke="#132e65" stroke-width="1.5"></path><path d="M255.45 677.86L61.65 531.01" stroke="#132e65" stroke-width="1.5"></path><path d="M341.97 373.77L341.97 373.77" stroke="#132e65" stroke-width="1.5"></path><path d="M341.97 373.77L349.85 514.55" stroke="#132e65" stroke-width="1.5"></path><path d="M341.97 373.77L225.72 522.92" stroke="#132e65" stroke-width="1.5"></path><path d="M341.97 373.77L555.85 493.09" stroke="#132e65" stroke-width="1.5"></path><path d="M341.97 373.77L338.68 637.73" stroke="#132e65" stroke-width="1.5"></path><path d="M341.97 373.77L43.94 389.82" stroke="#132e65" stroke-width="1.5"></path><path d="M349.85 514.55L349.85 514.55" stroke="#132e65" stroke-width="1.5"></path><path d="M349.85 514.55L338.68 637.73" stroke="#132e65" stroke-width="1.5"></path><path d="M349.85 514.55L555.85 493.09" stroke="#132e65" stroke-width="1.5"></path><path d="M338.68 637.73L338.68 637.73" stroke="#132e65" stroke-width="1.5"></path><path d="M555.85 493.09L555.85 493.09" stroke="#132e65" stroke-width="1.5"></path><path d="M555.85 493.09L646.58 505.1" stroke="#132e65" stroke-width="1.5"></path><path d="M555.85 493.09L653.48 364.52" stroke="#132e65" stroke-width="1.5"></path><path d="M555.85 493.09L663.28 660.83" stroke="#132e65" stroke-width="1.5"></path><path d="M555.85 493.09L499.69 695.15" stroke="#132e65" stroke-width="1.5"></path><path d="M499.69 695.15L499.69 695.15" stroke="#132e65" stroke-width="1.5"></path><path d="M499.69 695.15L663.28 660.83" stroke="#132e65" stroke-width="1.5"></path><path d="M499.69 695.15L338.68 637.73" stroke="#132e65" stroke-width="1.5"></path><path d="M499.69 695.15L349.85 514.55" stroke="#132e65" stroke-width="1.5"></path><path d="M653.48 364.52L653.48 364.52" stroke="#132e65" stroke-width="1.5"></path><path d="M653.48 364.52L646.58 505.1" stroke="#132e65" stroke-width="1.5"></path><path d="M646.58 505.1L646.58 505.1" stroke="#132e65" stroke-width="1.5"></path><path d="M646.58 505.1L663.28 660.83" stroke="#132e65" stroke-width="1.5"></path><path d="M646.58 505.1L802.25 531.96" stroke="#132e65" stroke-width="1.5"></path><path d="M663.28 660.83L663.28 660.83" stroke="#132e65" stroke-width="1.5"></path><path d="M663.28 660.83L819.83 649.27" stroke="#132e65" stroke-width="1.5"></path><path d="M843.37 101.64L843.37 101.64" stroke="#132e65" stroke-width="1.5"></path><path d="M843.37 101.64L966.84 69.41" stroke="#132e65" stroke-width="1.5"></path><path d="M843.37 101.64L848.41 259.02" stroke="#132e65" stroke-width="1.5"></path><path d="M843.37 101.64L976.1 204.34" stroke="#132e65" stroke-width="1.5"></path><path d="M848.41 259.02L848.41 259.02" stroke="#132e65" stroke-width="1.5"></path><path d="M848.41 259.02L862.28 339.86" stroke="#132e65" stroke-width="1.5"></path><path d="M848.41 259.02L976.1 204.34" stroke="#132e65" stroke-width="1.5"></path><path d="M862.28 339.86L862.28 339.86" stroke="#132e65" stroke-width="1.5"></path><path d="M862.28 339.86L982.19 393.4" stroke="#132e65" stroke-width="1.5"></path><path d="M862.28 339.86L976.1 204.34" stroke="#132e65" stroke-width="1.5"></path><path d="M862.28 339.86L802.25 531.96" stroke="#132e65" stroke-width="1.5"></path><path d="M862.28 339.86L653.48 364.52" stroke="#132e65" stroke-width="1.5"></path><path d="M802.25 531.96L802.25 531.96" stroke="#132e65" stroke-width="1.5"></path><path d="M802.25 531.96L819.83 649.27" stroke="#132e65" stroke-width="1.5"></path><path d="M802.25 531.96L663.28 660.83" stroke="#132e65" stroke-width="1.5"></path><path d="M802.25 531.96L949.58 664.28" stroke="#132e65" stroke-width="1.5"></path><path d="M802.25 531.96L1001.59 529.26" stroke="#132e65" stroke-width="1.5"></path><path d="M819.83 649.27L819.83 649.27" stroke="#132e65" stroke-width="1.5"></path><path d="M988.53 -90.7L988.53 -90.7" stroke="#132e65" stroke-width="1.5"></path><path d="M988.53 -90.7L1116.01 -100.1" stroke="#132e65" stroke-width="1.5"></path><path d="M988.53 -90.7L966.84 69.41" stroke="#132e65" stroke-width="1.5"></path><path d="M966.84 69.41L966.84 69.41" stroke="#132e65" stroke-width="1.5"></path><path d="M966.84 69.41L976.1 204.34" stroke="#132e65" stroke-width="1.5"></path><path d="M966.84 69.41L1162.13 101.11" stroke="#132e65" stroke-width="1.5"></path><path d="M966.84 69.41L848.41 259.02" stroke="#132e65" stroke-width="1.5"></path><path d="M976.1 204.34L976.1 204.34" stroke="#132e65" stroke-width="1.5"></path><path d="M976.1 204.34L1132.18 256.09" stroke="#132e65" stroke-width="1.5"></path><path d="M982.19 393.4L982.19 393.4" stroke="#132e65" stroke-width="1.5"></path><path d="M982.19 393.4L1001.59 529.26" stroke="#132e65" stroke-width="1.5"></path><path d="M982.19 393.4L1161.3 378.88" stroke="#132e65" stroke-width="1.5"></path><path d="M1001.59 529.26L1001.59 529.26" stroke="#132e65" stroke-width="1.5"></path><path d="M1001.59 529.26L1114.55 556.16" stroke="#132e65" stroke-width="1.5"></path><path d="M1001.59 529.26L949.58 664.28" stroke="#132e65" stroke-width="1.5"></path><path d="M1001.59 529.26L819.83 649.27" stroke="#132e65" stroke-width="1.5"></path><path d="M949.58 664.28L949.58 664.28" stroke="#132e65" stroke-width="1.5"></path><path d="M949.58 664.28L819.83 649.27" stroke="#132e65" stroke-width="1.5"></path><path d="M1116.01 -100.1L1116.01 -100.1" stroke="#132e65" stroke-width="1.5"></path><path d="M1116.01 -100.1L1259.66 -45.06" stroke="#132e65" stroke-width="1.5"></path><path d="M1116.01 -100.1L1162.13 101.11" stroke="#132e65" stroke-width="1.5"></path><path d="M1116.01 -100.1L966.84 69.41" stroke="#132e65" stroke-width="1.5"></path><path d="M1116.01 -100.1L1294.4 50.41" stroke="#132e65" stroke-width="1.5"></path><path d="M1116.01 -100.1L1395.1 -92.73" stroke="#132e65" stroke-width="1.5"></path><path d="M1162.13 101.11L1162.13 101.11" stroke="#132e65" stroke-width="1.5"></path><path d="M1162.13 101.11L1294.4 50.41" stroke="#132e65" stroke-width="1.5"></path><path d="M1162.13 101.11L1237.88 229.16" stroke="#132e65" stroke-width="1.5"></path><path d="M1162.13 101.11L1132.18 256.09" stroke="#132e65" stroke-width="1.5"></path><path d="M1162.13 101.11L1259.66 -45.06" stroke="#132e65" stroke-width="1.5"></path><path d="M1132.18 256.09L1132.18 256.09" stroke="#132e65" stroke-width="1.5"></path><path d="M1132.18 256.09L1237.88 229.16" stroke="#132e65" stroke-width="1.5"></path><path d="M1132.18 256.09L1161.3 378.88" stroke="#132e65" stroke-width="1.5"></path><path d="M1161.3 378.88L1161.3 378.88" stroke="#132e65" stroke-width="1.5"></path><path d="M1161.3 378.88L1237.88 229.16" stroke="#132e65" stroke-width="1.5"></path><path d="M1114.55 556.16L1114.55 556.16" stroke="#132e65" stroke-width="1.5"></path><path d="M1114.55 556.16L1141.32 708.43" stroke="#132e65" stroke-width="1.5"></path><path d="M1114.55 556.16L1293.61 530.37" stroke="#132e65" stroke-width="1.5"></path><path d="M1114.55 556.16L1161.3 378.88" stroke="#132e65" stroke-width="1.5"></path><path d="M1114.55 556.16L949.58 664.28" stroke="#132e65" stroke-width="1.5"></path><path d="M1141.32 708.43L1141.32 708.43" stroke="#132e65" stroke-width="1.5"></path><path d="M1141.32 708.43L1292.07 687.82" stroke="#132e65" stroke-width="1.5"></path><path d="M1141.32 708.43L949.58 664.28" stroke="#132e65" stroke-width="1.5"></path><path d="M1141.32 708.43L1001.59 529.26" stroke="#132e65" stroke-width="1.5"></path><path d="M1141.32 708.43L1293.61 530.37" stroke="#132e65" stroke-width="1.5"></path><path d="M1259.66 -45.06L1259.66 -45.06" stroke="#132e65" stroke-width="1.5"></path><path d="M1259.66 -45.06L1294.4 50.41" stroke="#132e65" stroke-width="1.5"></path><path d="M1259.66 -45.06L1395.1 -92.73" stroke="#132e65" stroke-width="1.5"></path><path d="M1259.66 -45.06L1401.79 46.35" stroke="#132e65" stroke-width="1.5"></path><path d="M1259.66 -45.06L988.53 -90.7" stroke="#132e65" stroke-width="1.5"></path><path d="M1294.4 50.41L1294.4 50.41" stroke="#132e65" stroke-width="1.5"></path><path d="M1294.4 50.41L1401.79 46.35" stroke="#132e65" stroke-width="1.5"></path><path d="M1294.4 50.41L1395.1 -92.73" stroke="#132e65" stroke-width="1.5"></path><path d="M1294.4 50.41L1407 189.25" stroke="#132e65" stroke-width="1.5"></path><path d="M1294.4 50.41L1237.88 229.16" stroke="#132e65" stroke-width="1.5"></path><path d="M1237.88 229.16L1237.88 229.16" stroke="#132e65" stroke-width="1.5"></path><path d="M1293.61 530.37L1293.61 530.37" stroke="#132e65" stroke-width="1.5"></path><path d="M1293.61 530.37L1292.07 687.82" stroke="#132e65" stroke-width="1.5"></path><path d="M1293.61 530.37L1453.32 557.44" stroke="#132e65" stroke-width="1.5"></path><path d="M1293.61 530.37L1161.3 378.88" stroke="#132e65" stroke-width="1.5"></path><path d="M1293.61 530.37L1444.73 387.52" stroke="#132e65" stroke-width="1.5"></path><path d="M1292.07 687.82L1292.07 687.82" stroke="#132e65" stroke-width="1.5"></path><path d="M1292.07 687.82L1453.32 557.44" stroke="#132e65" stroke-width="1.5"></path><path d="M1292.07 687.82L1114.55 556.16" stroke="#132e65" stroke-width="1.5"></path><path d="M1292.07 687.82L1561.79 645.95" stroke="#132e65" stroke-width="1.5"></path><path d="M1292.07 687.82L1001.59 529.26" stroke="#132e65" stroke-width="1.5"></path><path d="M1395.1 -92.73L1395.1 -92.73" stroke="#132e65" stroke-width="1.5"></path><path d="M1395.1 -92.73L1401.79 46.35" stroke="#132e65" stroke-width="1.5"></path><path d="M1395.1 -92.73L1604.76 -88.22" stroke="#132e65" stroke-width="1.5"></path><path d="M1395.1 -92.73L1580.17 58.83" stroke="#132e65" stroke-width="1.5"></path><path d="M1401.79 46.35L1401.79 46.35" stroke="#132e65" stroke-width="1.5"></path><path d="M1401.79 46.35L1407 189.25" stroke="#132e65" stroke-width="1.5"></path><path d="M1401.79 46.35L1580.17 58.83" stroke="#132e65" stroke-width="1.5"></path><path d="M1407 189.25L1407 189.25" stroke="#132e65" stroke-width="1.5"></path><path d="M1407 189.25L1540.41 196.72" stroke="#132e65" stroke-width="1.5"></path><path d="M1407 189.25L1237.88 229.16" stroke="#132e65" stroke-width="1.5"></path><path d="M1407 189.25L1444.73 387.52" stroke="#132e65" stroke-width="1.5"></path><path d="M1444.73 387.52L1444.73 387.52" stroke="#132e65" stroke-width="1.5"></path><path d="M1444.73 387.52L1545.22 367.15" stroke="#132e65" stroke-width="1.5"></path><path d="M1444.73 387.52L1453.32 557.44" stroke="#132e65" stroke-width="1.5"></path><path d="M1453.32 557.44L1453.32 557.44" stroke="#132e65" stroke-width="1.5"></path><path d="M1453.32 557.44L1577.34 495.19" stroke="#132e65" stroke-width="1.5"></path><path d="M1453.32 557.44L1561.79 645.95" stroke="#132e65" stroke-width="1.5"></path><path d="M1604.76 -88.22L1604.76 -88.22" stroke="#132e65" stroke-width="1.5"></path><path d="M1604.76 -88.22L1580.17 58.83" stroke="#132e65" stroke-width="1.5"></path><path d="M1580.17 58.83L1580.17 58.83" stroke="#132e65" stroke-width="1.5"></path><path d="M1580.17 58.83L1540.41 196.72" stroke="#132e65" stroke-width="1.5"></path><path d="M1540.41 196.72L1540.41 196.72" stroke="#132e65" stroke-width="1.5"></path><path d="M1540.41 196.72L1545.22 367.15" stroke="#132e65" stroke-width="1.5"></path><path d="M1540.41 196.72L1401.79 46.35" stroke="#132e65" stroke-width="1.5"></path><path d="M1540.41 196.72L1444.73 387.52" stroke="#132e65" stroke-width="1.5"></path><path d="M1545.22 367.15L1545.22 367.15" stroke="#132e65" stroke-width="1.5"></path><path d="M1545.22 367.15L1577.34 495.19" stroke="#132e65" stroke-width="1.5"></path><path d="M1545.22 367.15L1453.32 557.44" stroke="#132e65" stroke-width="1.5"></path><path d="M1577.34 495.19L1577.34 495.19" stroke="#132e65" stroke-width="1.5"></path><path d="M1577.34 495.19L1561.79 645.95" stroke="#132e65" stroke-width="1.5"></path><path d="M1577.34 495.19L1444.73 387.52" stroke="#132e65" stroke-width="1.5"></path><path d="M1577.34 495.19L1293.61 530.37" stroke="#132e65" stroke-width="1.5"></path><path d="M1577.34 495.19L1540.41 196.72" stroke="#132e65" stroke-width="1.5"></path><path d="M1561.79 645.95L1561.79 645.95" stroke="#132e65" stroke-width="1.5"></path><path d="M1561.79 645.95L1545.22 367.15" stroke="#132e65" stroke-width="1.5"></path><path d="M1561.79 645.95L1444.73 387.52" stroke="#132e65" stroke-width="1.5"></path><path d="M1561.79 645.95L1293.61 530.37" stroke="#132e65" stroke-width="1.5"></path><circle r="5" cx="-99.72" cy="362.81" fill="#132e65"></circle><circle r="5" cx="-99.06" cy="555.34" fill="#132e65"></circle><circle r="5" cx="-80.94" cy="674.6" fill="#132e65"></circle><circle r="5" cx="43.94" cy="389.82" fill="#132e65"></circle><circle r="5" cx="61.65" cy="531.01" fill="#132e65"></circle><circle r="5" cx="42.14" cy="670.2" fill="#132e65"></circle><circle r="5" cx="203.53" cy="375.66" fill="#132e65"></circle><circle r="5" cx="225.72" cy="522.92" fill="#132e65"></circle><circle r="5" cx="255.45" cy="677.86" fill="#132e65"></circle><circle r="5" cx="341.97" cy="373.77" fill="#132e65"></circle><circle r="5" cx="349.85" cy="514.55" fill="#132e65"></circle><circle r="5" cx="338.68" cy="637.73" fill="#132e65"></circle><circle r="5" cx="555.85" cy="493.09" fill="#132e65"></circle><circle r="5" cx="499.69" cy="695.15" fill="#132e65"></circle><circle r="5" cx="653.48" cy="364.52" fill="#132e65"></circle><circle r="5" cx="646.58" cy="505.1" fill="#132e65"></circle><circle r="5" cx="663.28" cy="660.83" fill="#132e65"></circle><circle r="5" cx="843.37" cy="101.64" fill="#132e65"></circle><circle r="5" cx="848.41" cy="259.02" fill="#132e65"></circle><circle r="5" cx="862.28" cy="339.86" fill="#132e65"></circle><circle r="5" cx="802.25" cy="531.96" fill="#132e65"></circle><circle r="5" cx="819.83" cy="649.27" fill="#132e65"></circle><circle r="5" cx="988.53" cy="-90.7" fill="#132e65"></circle><circle r="5" cx="966.84" cy="69.41" fill="#132e65"></circle><circle r="5" cx="976.1" cy="204.34" fill="#132e65"></circle><circle r="5" cx="982.19" cy="393.4" fill="#132e65"></circle><circle r="5" cx="1001.59" cy="529.26" fill="#132e65"></circle><circle r="5" cx="949.58" cy="664.28" fill="#132e65"></circle><circle r="5" cx="1116.01" cy="-100.1" fill="#132e65"></circle><circle r="5" cx="1162.13" cy="101.11" fill="#132e65"></circle><circle r="5" cx="1132.18" cy="256.09" fill="#132e65"></circle><circle r="5" cx="1161.3" cy="378.88" fill="#132e65"></circle><circle r="5" cx="1114.55" cy="556.16" fill="#132e65"></circle><circle r="5" cx="1141.32" cy="708.43" fill="#132e65"></circle><circle r="5" cx="1259.66" cy="-45.06" fill="#132e65"></circle><circle r="5" cx="1294.4" cy="50.41" fill="#132e65"></circle><circle r="5" cx="1237.88" cy="229.16" fill="#132e65"></circle><circle r="5" cx="1293.61" cy="530.37" fill="#132e65"></circle><circle r="5" cx="1292.07" cy="687.82" fill="#132e65"></circle><circle r="5" cx="1395.1" cy="-92.73" fill="#132e65"></circle><circle r="5" cx="1401.79" cy="46.35" fill="#132e65"></circle><circle r="5" cx="1407" cy="189.25" fill="#132e65"></circle><circle r="5" cx="1444.73" cy="387.52" fill="#132e65"></circle><circle r="5" cx="1453.32" cy="557.44" fill="#132e65"></circle><circle r="5" cx="1604.76" cy="-88.22" fill="#132e65"></circle><circle r="5" cx="1580.17" cy="58.83" fill="#132e65"></circle><circle r="5" cx="1540.41" cy="196.72" fill="#132e65"></circle><circle r="5" cx="1545.22" cy="367.15" fill="#132e65"></circle><circle r="5" cx="1577.34" cy="495.19" fill="#132e65"></circle><circle r="5" cx="1561.79" cy="645.95" fill="#132e65"></circle><path d="M-73.29 538.31L-73.29 538.31" stroke="hsl(228.5, 77.2%, 51.5%)" stroke-width="1.5"></path><path d="M-73.29 538.31L42.26 534.07" stroke="hsl(228.5, 77.2%, 51.5%)" stroke-width="1.5"></path><path d="M-73.29 538.31L-100.37 671.68" stroke="hsl(228.5, 77.2%, 51.5%)" stroke-width="1.5"></path><path d="M-73.29 538.31L70.34 712.29" stroke="hsl(228.5, 77.2%, 51.5%)" stroke-width="1.5"></path><path d="M42.26 534.07L42.26 534.07" stroke="hsl(228.5, 77.2%, 51.5%)" stroke-width="1.5"></path><path d="M42.26 534.07L70.34 712.29" stroke="hsl(228.5, 77.2%, 51.5%)" stroke-width="1.5"></path><path d="M226.15 642.98L226.15 642.98" stroke="hsl(228.5, 77.2%, 51.5%)" stroke-width="1.5"></path><path d="M226.15 642.98L223.78 516.05" stroke="hsl(228.5, 77.2%, 51.5%)" stroke-width="1.5"></path><path d="M226.15 642.98L389.72 676.5" stroke="hsl(228.5, 77.2%, 51.5%)" stroke-width="1.5"></path><path d="M226.15 642.98L70.34 712.29" stroke="hsl(228.5, 77.2%, 51.5%)" stroke-width="1.5"></path><path d="M226.15 642.98L356.8 515.93" stroke="hsl(228.5, 77.2%, 51.5%)" stroke-width="1.5"></path><path d="M518.88 512.2L518.88 512.2" stroke="hsl(228.5, 77.2%, 51.5%)" stroke-width="1.5"></path><path d="M518.88 512.2L675.46 502.56" stroke="hsl(228.5, 77.2%, 51.5%)" stroke-width="1.5"></path><path d="M518.88 512.2L499.24 668.58" stroke="hsl(228.5, 77.2%, 51.5%)" stroke-width="1.5"></path><path d="M518.88 512.2L356.8 515.93" stroke="hsl(228.5, 77.2%, 51.5%)" stroke-width="1.5"></path><path d="M518.88 512.2L389.72 676.5" stroke="hsl(228.5, 77.2%, 51.5%)" stroke-width="1.5"></path><path d="M518.88 512.2L668.48 675.93" stroke="hsl(228.5, 77.2%, 51.5%)" stroke-width="1.5"></path><path d="M518.88 512.2L223.78 516.05" stroke="hsl(228.5, 77.2%, 51.5%)" stroke-width="1.5"></path><path d="M983.65 488.83L983.65 488.83" stroke="hsl(228.5, 77.2%, 51.5%)" stroke-width="1.5"></path><path d="M983.65 488.83L851.57 511.48" stroke="hsl(228.5, 77.2%, 51.5%)" stroke-width="1.5"></path><path d="M983.65 488.83L1144.48 528.72" stroke="hsl(228.5, 77.2%, 51.5%)" stroke-width="1.5"></path><path d="M983.65 488.83L959.62 657.21" stroke="hsl(228.5, 77.2%, 51.5%)" stroke-width="1.5"></path><path d="M983.65 488.83L801.15 408.17" stroke="hsl(228.5, 77.2%, 51.5%)" stroke-width="1.5"></path><path d="M983.65 488.83L1152.47 356.77" stroke="hsl(228.5, 77.2%, 51.5%)" stroke-width="1.5"></path><path d="M983.65 488.83L1124.67 675.99" stroke="hsl(228.5, 77.2%, 51.5%)" stroke-width="1.5"></path><path d="M1138.8 228.29L1138.8 228.29" stroke="hsl(228.5, 77.2%, 51.5%)" stroke-width="1.5"></path><path d="M1138.8 228.29L1152.47 356.77" stroke="hsl(228.5, 77.2%, 51.5%)" stroke-width="1.5"></path><path d="M1138.8 228.29L1139.67 70.86" stroke="hsl(228.5, 77.2%, 51.5%)" stroke-width="1.5"></path><path d="M1138.8 228.29L1308.75 239.47" stroke="hsl(228.5, 77.2%, 51.5%)" stroke-width="1.5"></path><path d="M1124.67 675.99L1124.67 675.99" stroke="hsl(228.5, 77.2%, 51.5%)" stroke-width="1.5"></path><path d="M1124.67 675.99L1144.48 528.72" stroke="hsl(228.5, 77.2%, 51.5%)" stroke-width="1.5"></path><path d="M1124.67 675.99L959.62 657.21" stroke="hsl(228.5, 77.2%, 51.5%)" stroke-width="1.5"></path><path d="M1124.67 675.99L1310.12 706.26" stroke="hsl(228.5, 77.2%, 51.5%)" stroke-width="1.5"></path><path d="M1124.67 675.99L832.46 688.19" stroke="hsl(228.5, 77.2%, 51.5%)" stroke-width="1.5"></path><path d="M1124.67 675.99L1440.63 693.8" stroke="hsl(228.5, 77.2%, 51.5%)" stroke-width="1.5"></path><path d="M1440.63 693.8L1440.63 693.8" stroke="hsl(228.5, 77.2%, 51.5%)" stroke-width="1.5"></path><path d="M1440.63 693.8L1310.12 706.26" stroke="hsl(228.5, 77.2%, 51.5%)" stroke-width="1.5"></path><path d="M1440.63 693.8L1605.5 659.25" stroke="hsl(228.5, 77.2%, 51.5%)" stroke-width="1.5"></path><path d="M1605.5 659.25L1605.5 659.25" stroke="hsl(228.5, 77.2%, 51.5%)" stroke-width="1.5"></path><path d="M1605.5 659.25L1559.1 521.38" stroke="hsl(228.5, 77.2%, 51.5%)" stroke-width="1.5"></path><path d="M-100.37 671.68L-100.37 671.68" stroke="hsl(228.5, 77.2%, 51.5%)" stroke-width="1.5"></path><path d="M-100.37 671.68L70.34 712.29" stroke="hsl(228.5, 77.2%, 51.5%)" stroke-width="1.5"></path><path d="M70.34 712.29L70.34 712.29" stroke="hsl(228.5, 77.2%, 51.5%)" stroke-width="1.5"></path><path d="M223.78 516.05L223.78 516.05" stroke="hsl(228.5, 77.2%, 51.5%)" stroke-width="1.5"></path><path d="M223.78 516.05L356.8 515.93" stroke="hsl(228.5, 77.2%, 51.5%)" stroke-width="1.5"></path><path d="M356.8 515.93L356.8 515.93" stroke="hsl(228.5, 77.2%, 51.5%)" stroke-width="1.5"></path><path d="M356.8 515.93L389.72 676.5" stroke="hsl(228.5, 77.2%, 51.5%)" stroke-width="1.5"></path><path d="M356.8 515.93L499.24 668.58" stroke="hsl(228.5, 77.2%, 51.5%)" stroke-width="1.5"></path><path d="M389.72 676.5L389.72 676.5" stroke="hsl(228.5, 77.2%, 51.5%)" stroke-width="1.5"></path><path d="M389.72 676.5L499.24 668.58" stroke="hsl(228.5, 77.2%, 51.5%)" stroke-width="1.5"></path><path d="M499.24 668.58L499.24 668.58" stroke="hsl(228.5, 77.2%, 51.5%)" stroke-width="1.5"></path><path d="M675.46 502.56L675.46 502.56" stroke="hsl(228.5, 77.2%, 51.5%)" stroke-width="1.5"></path><path d="M675.46 502.56L801.15 408.17" stroke="hsl(228.5, 77.2%, 51.5%)" stroke-width="1.5"></path><path d="M675.46 502.56L668.48 675.93" stroke="hsl(228.5, 77.2%, 51.5%)" stroke-width="1.5"></path><path d="M675.46 502.56L851.57 511.48" stroke="hsl(228.5, 77.2%, 51.5%)" stroke-width="1.5"></path><path d="M675.46 502.56L499.24 668.58" stroke="hsl(228.5, 77.2%, 51.5%)" stroke-width="1.5"></path><path d="M675.46 502.56L832.46 688.19" stroke="hsl(228.5, 77.2%, 51.5%)" stroke-width="1.5"></path><path d="M668.48 675.93L668.48 675.93" stroke="hsl(228.5, 77.2%, 51.5%)" stroke-width="1.5"></path><path d="M668.48 675.93L832.46 688.19" stroke="hsl(228.5, 77.2%, 51.5%)" stroke-width="1.5"></path><path d="M668.48 675.93L499.24 668.58" stroke="hsl(228.5, 77.2%, 51.5%)" stroke-width="1.5"></path><path d="M801.15 408.17L801.15 408.17" stroke="hsl(228.5, 77.2%, 51.5%)" stroke-width="1.5"></path><path d="M801.15 408.17L851.57 511.48" stroke="hsl(228.5, 77.2%, 51.5%)" stroke-width="1.5"></path><path d="M801.15 408.17L832.46 688.19" stroke="hsl(228.5, 77.2%, 51.5%)" stroke-width="1.5"></path><path d="M801.15 408.17L959.62 657.21" stroke="hsl(228.5, 77.2%, 51.5%)" stroke-width="1.5"></path><path d="M801.15 408.17L668.48 675.93" stroke="hsl(228.5, 77.2%, 51.5%)" stroke-width="1.5"></path><path d="M851.57 511.48L851.57 511.48" stroke="hsl(228.5, 77.2%, 51.5%)" stroke-width="1.5"></path><path d="M851.57 511.48L832.46 688.19" stroke="hsl(228.5, 77.2%, 51.5%)" stroke-width="1.5"></path><path d="M832.46 688.19L832.46 688.19" stroke="hsl(228.5, 77.2%, 51.5%)" stroke-width="1.5"></path><path d="M832.46 688.19L959.62 657.21" stroke="hsl(228.5, 77.2%, 51.5%)" stroke-width="1.5"></path><path d="M959.62 657.21L959.62 657.21" stroke="hsl(228.5, 77.2%, 51.5%)" stroke-width="1.5"></path><path d="M959.62 657.21L851.57 511.48" stroke="hsl(228.5, 77.2%, 51.5%)" stroke-width="1.5"></path><path d="M959.62 657.21L1144.48 528.72" stroke="hsl(228.5, 77.2%, 51.5%)" stroke-width="1.5"></path><path d="M959.62 657.21L668.48 675.93" stroke="hsl(228.5, 77.2%, 51.5%)" stroke-width="1.5"></path><path d="M1139.67 70.86L1139.67 70.86" stroke="hsl(228.5, 77.2%, 51.5%)" stroke-width="1.5"></path><path d="M1139.67 70.86L1284.58 97.85" stroke="hsl(228.5, 77.2%, 51.5%)" stroke-width="1.5"></path><path d="M1139.67 70.86L1290.71 -94.48" stroke="hsl(228.5, 77.2%, 51.5%)" stroke-width="1.5"></path><path d="M1152.47 356.77L1152.47 356.77" stroke="hsl(228.5, 77.2%, 51.5%)" stroke-width="1.5"></path><path d="M1152.47 356.77L1299.16 400.93" stroke="hsl(228.5, 77.2%, 51.5%)" stroke-width="1.5"></path><path d="M1152.47 356.77L1144.48 528.72" stroke="hsl(228.5, 77.2%, 51.5%)" stroke-width="1.5"></path><path d="M1144.48 528.72L1144.48 528.72" stroke="hsl(228.5, 77.2%, 51.5%)" stroke-width="1.5"></path><path d="M1290.71 -94.48L1290.71 -94.48" stroke="hsl(228.5, 77.2%, 51.5%)" stroke-width="1.5"></path><path d="M1290.71 -94.48L1460.06 -82.84" stroke="hsl(228.5, 77.2%, 51.5%)" stroke-width="1.5"></path><path d="M1290.71 -94.48L1388.82 45.24" stroke="hsl(228.5, 77.2%, 51.5%)" stroke-width="1.5"></path><path d="M1290.71 -94.48L1284.58 97.85" stroke="hsl(228.5, 77.2%, 51.5%)" stroke-width="1.5"></path><path d="M1290.71 -94.48L1562.11 -93.78" stroke="hsl(228.5, 77.2%, 51.5%)" stroke-width="1.5"></path><path d="M1290.71 -94.48L1543.2 48.19" stroke="hsl(228.5, 77.2%, 51.5%)" stroke-width="1.5"></path><path d="M1284.58 97.85L1284.58 97.85" stroke="hsl(228.5, 77.2%, 51.5%)" stroke-width="1.5"></path><path d="M1284.58 97.85L1388.82 45.24" stroke="hsl(228.5, 77.2%, 51.5%)" stroke-width="1.5"></path><path d="M1284.58 97.85L1308.75 239.47" stroke="hsl(228.5, 77.2%, 51.5%)" stroke-width="1.5"></path><path d="M1284.58 97.85L1138.8 228.29" stroke="hsl(228.5, 77.2%, 51.5%)" stroke-width="1.5"></path><path d="M1284.58 97.85L1434.68 227.25" stroke="hsl(228.5, 77.2%, 51.5%)" stroke-width="1.5"></path><path d="M1308.75 239.47L1308.75 239.47" stroke="hsl(228.5, 77.2%, 51.5%)" stroke-width="1.5"></path><path d="M1308.75 239.47L1434.68 227.25" stroke="hsl(228.5, 77.2%, 51.5%)" stroke-width="1.5"></path><path d="M1299.16 400.93L1299.16 400.93" stroke="hsl(228.5, 77.2%, 51.5%)" stroke-width="1.5"></path><path d="M1299.16 400.93L1413.9 504.63" stroke="hsl(228.5, 77.2%, 51.5%)" stroke-width="1.5"></path><path d="M1310.12 706.26L1310.12 706.26" stroke="hsl(228.5, 77.2%, 51.5%)" stroke-width="1.5"></path><path d="M1310.12 706.26L1413.9 504.63" stroke="hsl(228.5, 77.2%, 51.5%)" stroke-width="1.5"></path><path d="M1310.12 706.26L1144.48 528.72" stroke="hsl(228.5, 77.2%, 51.5%)" stroke-width="1.5"></path><path d="M1310.12 706.26L1605.5 659.25" stroke="hsl(228.5, 77.2%, 51.5%)" stroke-width="1.5"></path><path d="M1460.06 -82.84L1460.06 -82.84" stroke="hsl(228.5, 77.2%, 51.5%)" stroke-width="1.5"></path><path d="M1460.06 -82.84L1562.11 -93.78" stroke="hsl(228.5, 77.2%, 51.5%)" stroke-width="1.5"></path><path d="M1460.06 -82.84L1388.82 45.24" stroke="hsl(228.5, 77.2%, 51.5%)" stroke-width="1.5"></path><path d="M1460.06 -82.84L1543.2 48.19" stroke="hsl(228.5, 77.2%, 51.5%)" stroke-width="1.5"></path><path d="M1460.06 -82.84L1284.58 97.85" stroke="hsl(228.5, 77.2%, 51.5%)" stroke-width="1.5"></path><path d="M1388.82 45.24L1388.82 45.24" stroke="hsl(228.5, 77.2%, 51.5%)" stroke-width="1.5"></path><path d="M1388.82 45.24L1543.2 48.19" stroke="hsl(228.5, 77.2%, 51.5%)" stroke-width="1.5"></path><path d="M1388.82 45.24L1434.68 227.25" stroke="hsl(228.5, 77.2%, 51.5%)" stroke-width="1.5"></path><path d="M1434.68 227.25L1434.68 227.25" stroke="hsl(228.5, 77.2%, 51.5%)" stroke-width="1.5"></path><path d="M1434.68 227.25L1542.67 229.12" stroke="hsl(228.5, 77.2%, 51.5%)" stroke-width="1.5"></path><path d="M1434.68 227.25L1543.2 48.19" stroke="hsl(228.5, 77.2%, 51.5%)" stroke-width="1.5"></path><path d="M1413.9 504.63L1413.9 504.63" stroke="hsl(228.5, 77.2%, 51.5%)" stroke-width="1.5"></path><path d="M1413.9 504.63L1559.1 521.38" stroke="hsl(228.5, 77.2%, 51.5%)" stroke-width="1.5"></path><path d="M1562.11 -93.78L1562.11 -93.78" stroke="hsl(228.5, 77.2%, 51.5%)" stroke-width="1.5"></path><path d="M1562.11 -93.78L1543.2 48.19" stroke="hsl(228.5, 77.2%, 51.5%)" stroke-width="1.5"></path><path d="M1543.2 48.19L1543.2 48.19" stroke="hsl(228.5, 77.2%, 51.5%)" stroke-width="1.5"></path><path d="M1543.2 48.19L1542.67 229.12" stroke="hsl(228.5, 77.2%, 51.5%)" stroke-width="1.5"></path><path d="M1543.2 48.19L1284.58 97.85" stroke="hsl(228.5, 77.2%, 51.5%)" stroke-width="1.5"></path><path d="M1542.67 229.12L1542.67 229.12" stroke="hsl(228.5, 77.2%, 51.5%)" stroke-width="1.5"></path><path d="M1542.67 229.12L1608.54 404.22" stroke="hsl(228.5, 77.2%, 51.5%)" stroke-width="1.5"></path><path d="M1542.67 229.12L1308.75 239.47" stroke="hsl(228.5, 77.2%, 51.5%)" stroke-width="1.5"></path><path d="M1608.54 404.22L1608.54 404.22" stroke="hsl(228.5, 77.2%, 51.5%)" stroke-width="1.5"></path><path d="M1608.54 404.22L1559.1 521.38" stroke="hsl(228.5, 77.2%, 51.5%)" stroke-width="1.5"></path><path d="M1608.54 404.22L1413.9 504.63" stroke="hsl(228.5, 77.2%, 51.5%)" stroke-width="1.5"></path><path d="M1559.1 521.38L1559.1 521.38" stroke="hsl(228.5, 77.2%, 51.5%)" stroke-width="1.5"></path><circle r="25" cx="-73.29" cy="538.31" fill="url(&quot;#SvgjsRadialGradient1048&quot;)"></circle><circle r="25" cx="42.26" cy="534.07" fill="url(&quot;#SvgjsRadialGradient1048&quot;)"></circle><circle r="25" cx="226.15" cy="642.98" fill="url(&quot;#SvgjsRadialGradient1048&quot;)"></circle><circle r="25" cx="518.88" cy="512.2" fill="url(&quot;#SvgjsRadialGradient1048&quot;)"></circle><circle r="25" cx="983.65" cy="488.83" fill="url(&quot;#SvgjsRadialGradient1048&quot;)"></circle><circle r="25" cx="1138.8" cy="228.29" fill="url(&quot;#SvgjsRadialGradient1048&quot;)"></circle><circle r="25" cx="1124.67" cy="675.99" fill="url(&quot;#SvgjsRadialGradient1048&quot;)"></circle><circle r="25" cx="1440.63" cy="693.8" fill="url(&quot;#SvgjsRadialGradient1048&quot;)"></circle><circle r="25" cx="1605.5" cy="659.25" fill="url(&quot;#SvgjsRadialGradient1048&quot;)"></circle><circle r="5" cx="-100.37" cy="671.68" fill="#8b9ad9"></circle><circle r="5" cx="70.34" cy="712.29" fill="#8b9ad9"></circle><circle r="5" cx="223.78" cy="516.05" fill="#8b9ad9"></circle><circle r="5" cx="356.8" cy="515.93" fill="#8b9ad9"></circle><circle r="5" cx="389.72" cy="676.5" fill="#8b9ad9"></circle><circle r="5" cx="499.24" cy="668.58" fill="#8b9ad9"></circle><circle r="5" cx="675.46" cy="502.56" fill="#8b9ad9"></circle><circle r="5" cx="668.48" cy="675.93" fill="#8b9ad9"></circle><circle r="5" cx="801.15" cy="408.17" fill="#8b9ad9"></circle><circle r="5" cx="851.57" cy="511.48" fill="#8b9ad9"></circle><circle r="5" cx="832.46" cy="688.19" fill="#8b9ad9"></circle><circle r="5" cx="959.62" cy="657.21" fill="#8b9ad9"></circle><circle r="5" cx="1139.67" cy="70.86" fill="#8b9ad9"></circle><circle r="5" cx="1152.47" cy="356.77" fill="#8b9ad9"></circle><circle r="5" cx="1144.48" cy="528.72" fill="#8b9ad9"></circle><circle r="5" cx="1290.71" cy="-94.48" fill="#8b9ad9"></circle><circle r="5" cx="1284.58" cy="97.85" fill="#8b9ad9"></circle><circle r="5" cx="1308.75" cy="239.47" fill="#8b9ad9"></circle><circle r="5" cx="1299.16" cy="400.93" fill="#8b9ad9"></circle><circle r="5" cx="1310.12" cy="706.26" fill="#8b9ad9"></circle><circle r="5" cx="1460.06" cy="-82.84" fill="#8b9ad9"></circle><circle r="5" cx="1388.82" cy="45.24" fill="#8b9ad9"></circle><circle r="5" cx="1434.68" cy="227.25" fill="#8b9ad9"></circle><circle r="5" cx="1413.9" cy="504.63" fill="#8b9ad9"></circle><circle r="5" cx="1562.11" cy="-93.78" fill="#8b9ad9"></circle><circle r="5" cx="1543.2" cy="48.19" fill="#8b9ad9"></circle><circle r="5" cx="1542.67" cy="229.12" fill="#8b9ad9"></circle><circle r="5" cx="1608.54" cy="404.22" fill="#8b9ad9"></circle><circle r="5" cx="1559.1" cy="521.38" fill="#8b9ad9"></circle></g><defs><mask id="SvgjsMask1046"><rect width="1440" height="560" fill="#ffffff"></rect></mask><linearGradient x1="0%" y1="50%" x2="100%" y2="50%" gradientUnits="userSpaceOnUse" id="SvgjsLinearGradient1047"><stop stop-color="#0e2a47" offset="0"></stop><stop stop-color="rgba(233, 237, 243, 1)" offset="1"></stop></linearGradient><radialGradient id="SvgjsRadialGradient1048"><stop stop-color="#ffffff" offset="0.1"></stop><stop stop-color="#1735b3" offset="0.2"></stop><stop stop-color="rgba(23, 53, 179, 0)" offset="1"></stop></radialGradient></defs></svg>